<svg xmlns="http://www.w3.org/2000/svg" xmlns:xlink="http://www.w3.org/1999/xlink" width="1024" zoomAndPan="magnify" viewBox="0 0 768 149.999998" height="200" preserveAspectRatio="xMidYMid meet" version="1.0"><defs><g/></defs><g fill="#013b23" fill-opacity="1"><g transform="translate(3.502883, 110.647649)"><g><path d="M 49.734375 1.75 C 43.421875 1.75 37.550781 0.617188 32.125 -1.640625 C 26.695312 -3.898438 21.992188 -6.960938 18.015625 -10.828125 C 14.035156 -14.691406 10.914062 -19.21875 8.65625 -24.40625 C 6.394531 -29.59375 5.265625 -35.113281 5.265625 -40.96875 C 5.265625 -46.8125 6.394531 -52.328125 8.65625 -57.515625 C 10.914062 -62.703125 14.035156 -67.226562 18.015625 -71.09375 C 21.992188 -74.957031 26.695312 -78.019531 32.125 -80.28125 C 37.550781 -82.539062 43.421875 -83.671875 49.734375 -83.671875 C 55.429688 -83.671875 60.441406 -82.8125 64.765625 -81.09375 C 69.097656 -79.382812 72.710938 -77.515625 75.609375 -75.484375 C 78.960938 -73.066406 81.847656 -70.335938 84.265625 -67.296875 L 72.5625 -55.59375 C 70.84375 -57.769531 68.851562 -59.71875 66.59375 -61.4375 C 64.644531 -62.925781 62.265625 -64.273438 59.453125 -65.484375 C 56.640625 -66.691406 53.398438 -67.296875 49.734375 -67.296875 C 46.066406 -67.296875 42.632812 -66.613281 39.4375 -65.25 C 36.238281 -63.882812 33.445312 -62.007812 31.0625 -59.625 C 28.6875 -57.25 26.816406 -54.460938 25.453125 -51.265625 C 24.085938 -48.066406 23.40625 -44.632812 23.40625 -40.96875 C 23.40625 -37.289062 24.085938 -33.851562 25.453125 -30.65625 C 26.816406 -27.457031 28.6875 -24.664062 31.0625 -22.28125 C 33.445312 -19.90625 36.238281 -18.035156 39.4375 -16.671875 C 42.632812 -15.304688 46.066406 -14.625 49.734375 -14.625 C 53.554688 -14.625 56.910156 -15.226562 59.796875 -16.4375 C 62.691406 -17.644531 65.148438 -18.992188 67.171875 -20.484375 C 69.515625 -22.203125 71.503906 -24.148438 73.140625 -26.328125 L 84.84375 -14.625 C 82.425781 -11.582031 79.503906 -8.851562 76.078125 -6.4375 C 73.109375 -4.40625 69.4375 -2.53125 65.0625 -0.8125 C 60.695312 0.894531 55.585938 1.75 49.734375 1.75 Z M 49.734375 1.75 "/></g></g></g><g fill="#013b23" fill-opacity="1"><g transform="translate(90.68152, 110.647649)"><g><path d="M 34.53125 1.171875 C 30.3125 1.171875 26.347656 0.390625 22.640625 -1.171875 C 18.941406 -2.734375 15.707031 -4.878906 12.9375 -7.609375 C 10.164062 -10.335938 8 -13.492188 6.4375 -17.078125 C 4.875 -20.671875 4.09375 -24.535156 4.09375 -28.671875 C 4.09375 -32.734375 4.875 -36.578125 6.4375 -40.203125 C 8 -43.828125 10.164062 -47.003906 12.9375 -49.734375 C 15.707031 -52.460938 18.941406 -54.609375 22.640625 -56.171875 C 26.347656 -57.734375 30.3125 -58.515625 34.53125 -58.515625 C 38.738281 -58.515625 42.695312 -57.734375 46.40625 -56.171875 C 50.113281 -54.609375 53.347656 -52.460938 56.109375 -49.734375 C 58.878906 -47.003906 61.046875 -43.828125 62.609375 -40.203125 C 64.171875 -36.578125 64.953125 -32.734375 64.953125 -28.671875 C 64.953125 -24.535156 64.171875 -20.671875 62.609375 -17.078125 C 61.046875 -13.492188 58.878906 -10.335938 56.109375 -7.609375 C 53.347656 -4.878906 50.113281 -2.734375 46.40625 -1.171875 C 42.695312 0.390625 38.738281 1.171875 34.53125 1.171875 Z M 34.53125 -13.453125 C 36.550781 -13.453125 38.457031 -13.84375 40.25 -14.625 C 42.050781 -15.40625 43.613281 -16.457031 44.9375 -17.78125 C 46.257812 -19.113281 47.289062 -20.710938 48.03125 -22.578125 C 48.78125 -24.453125 49.15625 -26.484375 49.15625 -28.671875 C 49.15625 -30.859375 48.78125 -32.882812 48.03125 -34.75 C 47.289062 -36.625 46.257812 -38.222656 44.9375 -39.546875 C 43.613281 -40.878906 42.050781 -41.9375 40.25 -42.71875 C 38.457031 -43.5 36.550781 -43.890625 34.53125 -43.890625 C 32.5 -43.890625 30.582031 -43.5 28.78125 -42.71875 C 26.988281 -41.9375 25.429688 -40.878906 24.109375 -39.546875 C 22.785156 -38.222656 21.75 -36.625 21 -34.75 C 20.257812 -32.882812 19.890625 -30.859375 19.890625 -28.671875 C 19.890625 -26.484375 20.257812 -24.453125 21 -22.578125 C 21.75 -20.710938 22.785156 -19.113281 24.109375 -17.78125 C 25.429688 -16.457031 26.988281 -15.40625 28.78125 -14.625 C 30.582031 -13.84375 32.5 -13.453125 34.53125 -13.453125 Z M 34.53125 -13.453125 "/></g></g></g><g fill="#013b23" fill-opacity="1"><g transform="translate(159.722309, 110.647649)"><g><path d="M 8.1875 -81.921875 L 23.984375 -81.921875 L 23.984375 0 L 8.1875 0 Z M 8.1875 -81.921875 "/></g></g></g><g fill="#013b23" fill-opacity="1"><g transform="translate(191.902341, 110.647649)"><g><path d="M 8.1875 -81.921875 L 23.984375 -81.921875 L 23.984375 0 L 8.1875 0 Z M 8.1875 -81.921875 "/></g></g></g><g fill="#013b23" fill-opacity="1"><g transform="translate(224.082386, 110.647649)"><g><path d="M 22.234375 1.171875 C 19.578125 1.171875 17.175781 0.765625 15.03125 -0.046875 C 12.882812 -0.867188 11.050781 -2.019531 9.53125 -3.5 C 8.007812 -4.988281 6.820312 -6.726562 5.96875 -8.71875 C 5.113281 -10.707031 4.6875 -12.875 4.6875 -15.21875 C 4.6875 -19.894531 6.1875 -23.890625 9.1875 -27.203125 C 12.1875 -30.523438 16.34375 -32.65625 21.65625 -33.59375 L 39.796875 -36.859375 C 39.484375 -38.890625 38.488281 -40.664062 36.8125 -42.1875 C 35.132812 -43.707031 32.8125 -44.46875 29.84375 -44.46875 C 27.8125 -44.46875 25.992188 -44.132812 24.390625 -43.46875 C 22.796875 -42.8125 21.453125 -42.050781 20.359375 -41.1875 C 19.035156 -40.257812 17.90625 -39.207031 16.96875 -38.03125 L 7.609375 -47.390625 C 9.242188 -49.421875 11.234375 -51.253906 13.578125 -52.890625 C 15.609375 -54.296875 18.066406 -55.582031 20.953125 -56.75 C 23.835938 -57.925781 27.191406 -58.515625 31.015625 -58.515625 C 34.679688 -58.515625 38.015625 -57.925781 41.015625 -56.75 C 44.023438 -55.582031 46.617188 -53.960938 48.796875 -51.890625 C 50.984375 -49.828125 52.660156 -47.410156 53.828125 -44.640625 C 55.003906 -41.878906 55.59375 -38.894531 55.59375 -35.6875 L 55.59375 0 L 39.796875 0 L 39.796875 -7.015625 L 39.203125 -7.015625 C 37.953125 -5.460938 36.507812 -4.097656 34.875 -2.921875 C 33.46875 -1.828125 31.691406 -0.867188 29.546875 -0.046875 C 27.398438 0.765625 24.960938 1.171875 22.234375 1.171875 Z M 27.5 -11.703125 C 31.007812 -11.703125 33.9375 -12.890625 36.28125 -15.265625 C 38.625 -17.648438 39.796875 -20.753906 39.796875 -24.578125 L 39.796875 -25.75 L 26.921875 -23.40625 C 24.890625 -23.019531 23.304688 -22.316406 22.171875 -21.296875 C 21.046875 -20.285156 20.484375 -19.039062 20.484375 -17.5625 C 20.484375 -15.757812 21.066406 -14.332031 22.234375 -13.28125 C 23.398438 -12.226562 25.15625 -11.703125 27.5 -11.703125 Z M 27.5 -11.703125 "/></g></g></g><g fill="#013b23" fill-opacity="1"><g transform="translate(287.272254, 110.647649)"><g><path d="M 42.71875 1.171875 C 39.59375 1.171875 36.914062 0.6875 34.6875 -0.28125 C 32.46875 -1.257812 30.582031 -2.335938 29.03125 -3.515625 C 27.226562 -4.921875 25.742188 -6.476562 24.578125 -8.1875 L 23.984375 -8.1875 L 23.984375 0 L 8.1875 0 L 8.1875 -81.921875 L 23.984375 -81.921875 L 23.984375 -49.15625 L 24.578125 -49.15625 C 25.742188 -50.875 27.226562 -52.429688 29.03125 -53.828125 C 30.582031 -55.003906 32.46875 -56.078125 34.6875 -57.046875 C 36.914062 -58.023438 39.59375 -58.515625 42.71875 -58.515625 C 46.070312 -58.515625 49.304688 -57.769531 52.421875 -56.28125 C 55.546875 -54.800781 58.296875 -52.753906 60.671875 -50.140625 C 63.054688 -47.535156 64.953125 -44.394531 66.359375 -40.71875 C 67.765625 -37.050781 68.46875 -33.035156 68.46875 -28.671875 C 68.46875 -24.304688 67.765625 -20.289062 66.359375 -16.625 C 64.953125 -12.957031 63.054688 -9.796875 60.671875 -7.140625 C 58.296875 -4.484375 55.546875 -2.429688 52.421875 -0.984375 C 49.304688 0.453125 46.070312 1.171875 42.71875 1.171875 Z M 38.03125 -13.453125 C 40.0625 -13.453125 41.972656 -13.84375 43.765625 -14.625 C 45.566406 -15.40625 47.128906 -16.457031 48.453125 -17.78125 C 49.773438 -19.113281 50.804688 -20.710938 51.546875 -22.578125 C 52.296875 -24.453125 52.671875 -26.484375 52.671875 -28.671875 C 52.671875 -30.859375 52.296875 -32.882812 51.546875 -34.75 C 50.804688 -36.625 49.773438 -38.222656 48.453125 -39.546875 C 47.128906 -40.878906 45.566406 -41.9375 43.765625 -42.71875 C 41.972656 -43.5 40.0625 -43.890625 38.03125 -43.890625 C 36.007812 -43.890625 34.097656 -43.5 32.296875 -42.71875 C 30.503906 -41.9375 28.941406 -40.878906 27.609375 -39.546875 C 26.285156 -38.222656 25.253906 -36.625 24.515625 -34.75 C 23.773438 -32.882812 23.40625 -30.859375 23.40625 -28.671875 C 23.40625 -26.484375 23.773438 -24.453125 24.515625 -22.578125 C 25.253906 -20.710938 26.285156 -19.113281 27.609375 -17.78125 C 28.941406 -16.457031 30.503906 -15.40625 32.296875 -14.625 C 34.097656 -13.84375 36.007812 -13.453125 38.03125 -13.453125 Z M 38.03125 -13.453125 "/></g></g></g><g fill="#013b23" fill-opacity="1"><g transform="translate(359.823595, 110.647649)"><g><path d="M 49.734375 1.75 C 43.421875 1.75 37.550781 0.617188 32.125 -1.640625 C 26.695312 -3.898438 21.992188 -6.960938 18.015625 -10.828125 C 14.035156 -14.691406 10.914062 -19.21875 8.65625 -24.40625 C 6.394531 -29.59375 5.265625 -35.113281 5.265625 -40.96875 C 5.265625 -46.8125 6.394531 -52.328125 8.65625 -57.515625 C 10.914062 -62.703125 14.035156 -67.226562 18.015625 -71.09375 C 21.992188 -74.957031 26.695312 -78.019531 32.125 -80.28125 C 37.550781 -82.539062 43.421875 -83.671875 49.734375 -83.671875 C 55.429688 -83.671875 60.441406 -82.8125 64.765625 -81.09375 C 69.097656 -79.382812 72.710938 -77.515625 75.609375 -75.484375 C 78.960938 -73.066406 81.847656 -70.335938 84.265625 -67.296875 L 72.5625 -55.59375 C 70.84375 -57.769531 68.851562 -59.71875 66.59375 -61.4375 C 64.644531 -62.925781 62.265625 -64.273438 59.453125 -65.484375 C 56.640625 -66.691406 53.398438 -67.296875 49.734375 -67.296875 C 46.066406 -67.296875 42.632812 -66.613281 39.4375 -65.25 C 36.238281 -63.882812 33.445312 -62.007812 31.0625 -59.625 C 28.6875 -57.25 26.816406 -54.460938 25.453125 -51.265625 C 24.085938 -48.066406 23.40625 -44.632812 23.40625 -40.96875 C 23.40625 -37.289062 24.085938 -33.851562 25.453125 -30.65625 C 26.816406 -27.457031 28.6875 -24.664062 31.0625 -22.28125 C 33.445312 -19.90625 36.238281 -18.035156 39.4375 -16.671875 C 42.632812 -15.304688 46.066406 -14.625 49.734375 -14.625 C 52.703125 -14.625 55.296875 -14.9375 57.515625 -15.5625 C 59.742188 -16.1875 61.640625 -16.925781 63.203125 -17.78125 C 64.992188 -18.71875 66.550781 -19.8125 67.875 -21.0625 L 67.875 -31.015625 L 52.671875 -31.015625 L 52.671875 -45.0625 L 85.4375 -45.0625 L 85.4375 -14.046875 C 82.863281 -11.078125 79.816406 -8.421875 76.296875 -6.078125 C 73.335938 -4.054688 69.632812 -2.242188 65.1875 -0.640625 C 60.738281 0.953125 55.585938 1.75 49.734375 1.75 Z M 49.734375 1.75 "/></g></g></g><g fill="#013b23" fill-opacity="1"><g transform="translate(452.85314, 110.647649)"><g><path d="M 22.234375 1.171875 C 19.578125 1.171875 17.175781 0.765625 15.03125 -0.046875 C 12.882812 -0.867188 11.050781 -2.019531 9.53125 -3.5 C 8.007812 -4.988281 6.820312 -6.726562 5.96875 -8.71875 C 5.113281 -10.707031 4.6875 -12.875 4.6875 -15.21875 C 4.6875 -19.894531 6.1875 -23.890625 9.1875 -27.203125 C 12.1875 -30.523438 16.34375 -32.65625 21.65625 -33.59375 L 39.796875 -36.859375 C 39.484375 -38.890625 38.488281 -40.664062 36.8125 -42.1875 C 35.132812 -43.707031 32.8125 -44.46875 29.84375 -44.46875 C 27.8125 -44.46875 25.992188 -44.132812 24.390625 -43.46875 C 22.796875 -42.8125 21.453125 -42.050781 20.359375 -41.1875 C 19.035156 -40.257812 17.90625 -39.207031 16.96875 -38.03125 L 7.609375 -47.390625 C 9.242188 -49.421875 11.234375 -51.253906 13.578125 -52.890625 C 15.609375 -54.296875 18.066406 -55.582031 20.953125 -56.75 C 23.835938 -57.925781 27.191406 -58.515625 31.015625 -58.515625 C 34.679688 -58.515625 38.015625 -57.925781 41.015625 -56.75 C 44.023438 -55.582031 46.617188 -53.960938 48.796875 -51.890625 C 50.984375 -49.828125 52.660156 -47.410156 53.828125 -44.640625 C 55.003906 -41.878906 55.59375 -38.894531 55.59375 -35.6875 L 55.59375 0 L 39.796875 0 L 39.796875 -7.015625 L 39.203125 -7.015625 C 37.953125 -5.460938 36.507812 -4.097656 34.875 -2.921875 C 33.46875 -1.828125 31.691406 -0.867188 29.546875 -0.046875 C 27.398438 0.765625 24.960938 1.171875 22.234375 1.171875 Z M 27.5 -11.703125 C 31.007812 -11.703125 33.9375 -12.890625 36.28125 -15.265625 C 38.625 -17.648438 39.796875 -20.753906 39.796875 -24.578125 L 39.796875 -25.75 L 26.921875 -23.40625 C 24.890625 -23.019531 23.304688 -22.316406 22.171875 -21.296875 C 21.046875 -20.285156 20.484375 -19.039062 20.484375 -17.5625 C 20.484375 -15.757812 21.066406 -14.332031 22.234375 -13.28125 C 23.398438 -12.226562 25.15625 -11.703125 27.5 -11.703125 Z M 27.5 -11.703125 "/></g></g></g><g fill="#013b23" fill-opacity="1"><g transform="translate(516.043008, 110.647649)"><g><path d="M 7.609375 -57.34375 L 23.40625 -57.34375 L 23.40625 -49.15625 L 23.984375 -49.15625 C 25.234375 -50.875 26.679688 -52.429688 28.328125 -53.828125 C 29.722656 -55.003906 31.472656 -56.078125 33.578125 -57.046875 C 35.691406 -58.023438 38.15625 -58.515625 40.96875 -58.515625 L 42.125 -58.515625 L 42.125 -41.546875 C 41.738281 -41.617188 41.3125 -41.695312 40.84375 -41.78125 C 40.375 -41.851562 39.804688 -41.925781 39.140625 -42 C 38.484375 -42.082031 37.722656 -42.125 36.859375 -42.125 C 33.035156 -42.125 29.835938 -40.757812 27.265625 -38.03125 C 24.691406 -35.300781 23.40625 -31.597656 23.40625 -26.921875 L 23.40625 0 L 7.609375 0 Z M 7.609375 -57.34375 "/></g></g></g><g fill="#013b23" fill-opacity="1"><g transform="translate(560.50998, 110.647649)"><g><path d="M 29.84375 1.171875 C 26.488281 1.171875 23.25 0.453125 20.125 -0.984375 C 17.007812 -2.429688 14.257812 -4.484375 11.875 -7.140625 C 9.5 -9.796875 7.609375 -12.957031 6.203125 -16.625 C 4.796875 -20.289062 4.09375 -24.304688 4.09375 -28.671875 C 4.09375 -33.035156 4.796875 -37.050781 6.203125 -40.71875 C 7.609375 -44.394531 9.5 -47.535156 11.875 -50.140625 C 14.257812 -52.753906 17.007812 -54.800781 20.125 -56.28125 C 23.25 -57.769531 26.488281 -58.515625 29.84375 -58.515625 C 32.882812 -58.515625 35.535156 -58.023438 37.796875 -57.046875 C 40.054688 -56.078125 41.96875 -55.003906 43.53125 -53.828125 C 45.332031 -52.429688 46.816406 -50.875 47.984375 -49.15625 L 48.5625 -49.15625 L 48.5625 -81.921875 L 64.375 -81.921875 L 64.375 0 L 48.5625 0 L 48.5625 -8.1875 L 47.984375 -8.1875 C 46.816406 -6.476562 45.332031 -4.921875 43.53125 -3.515625 C 41.96875 -2.335938 40.054688 -1.257812 37.796875 -0.28125 C 35.535156 0.6875 32.882812 1.171875 29.84375 1.171875 Z M 34.53125 -13.453125 C 36.550781 -13.453125 38.457031 -13.84375 40.25 -14.625 C 42.050781 -15.40625 43.613281 -16.457031 44.9375 -17.78125 C 46.257812 -19.113281 47.289062 -20.710938 48.03125 -22.578125 C 48.78125 -24.453125 49.15625 -26.484375 49.15625 -28.671875 C 49.15625 -30.859375 48.78125 -32.882812 48.03125 -34.75 C 47.289062 -36.625 46.257812 -38.222656 44.9375 -39.546875 C 43.613281 -40.878906 42.050781 -41.9375 40.25 -42.71875 C 38.457031 -43.5 36.550781 -43.890625 34.53125 -43.890625 C 32.5 -43.890625 30.582031 -43.5 28.78125 -42.71875 C 26.988281 -41.9375 25.429688 -40.878906 24.109375 -39.546875 C 22.785156 -38.222656 21.75 -36.625 21 -34.75 C 20.257812 -32.882812 19.890625 -30.859375 19.890625 -28.671875 C 19.890625 -26.484375 20.257812 -24.453125 21 -22.578125 C 21.75 -20.710938 22.785156 -19.113281 24.109375 -17.78125 C 25.429688 -16.457031 26.988281 -15.40625 28.78125 -14.625 C 30.582031 -13.84375 32.5 -13.453125 34.53125 -13.453125 Z M 34.53125 -13.453125 "/></g></g></g><g fill="#013b23" fill-opacity="1"><g transform="translate(633.061321, 110.647649)"><g><path d="M 34.53125 1.171875 C 30.3125 1.171875 26.347656 0.390625 22.640625 -1.171875 C 18.941406 -2.734375 15.707031 -4.878906 12.9375 -7.609375 C 10.164062 -10.335938 8 -13.492188 6.4375 -17.078125 C 4.875 -20.671875 4.09375 -24.535156 4.09375 -28.671875 C 4.09375 -32.734375 4.875 -36.578125 6.4375 -40.203125 C 8 -43.828125 10.144531 -47.003906 12.875 -49.734375 C 15.601562 -52.460938 18.757812 -54.609375 22.34375 -56.171875 C 25.9375 -57.734375 29.800781 -58.515625 33.9375 -58.515625 C 37.914062 -58.515625 41.640625 -57.753906 45.109375 -56.234375 C 48.585938 -54.710938 51.613281 -52.664062 54.1875 -50.09375 C 56.757812 -47.519531 58.804688 -44.492188 60.328125 -41.015625 C 61.847656 -37.546875 62.609375 -33.820312 62.609375 -29.84375 C 62.609375 -28.75 62.566406 -27.789062 62.484375 -26.96875 C 62.410156 -26.15625 62.335938 -25.4375 62.265625 -24.8125 C 62.179688 -24.03125 62.101562 -23.367188 62.03125 -22.828125 L 20.484375 -22.828125 C 21.335938 -20.171875 22.992188 -17.847656 25.453125 -15.859375 C 27.910156 -13.867188 31.320312 -12.875 35.6875 -12.875 C 38.1875 -12.875 40.375 -13.1875 42.25 -13.8125 C 44.125 -14.4375 45.722656 -15.175781 47.046875 -16.03125 C 48.523438 -16.96875 49.8125 -18.0625 50.90625 -19.3125 L 59.09375 -8.1875 C 57.382812 -6.476562 55.28125 -4.921875 52.78125 -3.515625 C 50.675781 -2.335938 48.101562 -1.257812 45.0625 -0.28125 C 42.019531 0.6875 38.507812 1.171875 34.53125 1.171875 Z M 46.234375 -34.53125 C 45.367188 -37.175781 43.820312 -39.492188 41.59375 -41.484375 C 39.375 -43.472656 36.628906 -44.46875 33.359375 -44.46875 C 30.078125 -44.46875 27.320312 -43.472656 25.09375 -41.484375 C 22.875 -39.492188 21.335938 -37.175781 20.484375 -34.53125 Z M 46.234375 -34.53125 "/></g></g></g><g fill="#013b23" fill-opacity="1"><g transform="translate(699.761754, 110.647649)"><g><path d="M 7.609375 -57.34375 L 23.40625 -57.34375 L 23.40625 -49.15625 L 23.984375 -49.15625 C 25.234375 -50.875 26.679688 -52.429688 28.328125 -53.828125 C 29.722656 -55.003906 31.472656 -56.078125 33.578125 -57.046875 C 35.691406 -58.023438 38.15625 -58.515625 40.96875 -58.515625 C 43.851562 -58.515625 46.582031 -57.945312 49.15625 -56.8125 C 51.726562 -55.6875 53.96875 -54.085938 55.875 -52.015625 C 57.789062 -49.953125 59.296875 -47.4375 60.390625 -44.46875 C 61.484375 -41.507812 62.03125 -38.195312 62.03125 -34.53125 L 62.03125 0 L 46.234375 0 L 46.234375 -32.1875 C 46.234375 -35.695312 45.296875 -38.425781 43.421875 -40.375 C 41.546875 -42.320312 38.96875 -43.296875 35.6875 -43.296875 C 32.175781 -43.296875 29.25 -42.101562 26.90625 -39.71875 C 24.570312 -37.34375 23.40625 -34.242188 23.40625 -30.421875 L 23.40625 0 L 7.609375 0 Z M 7.609375 -57.34375 "/></g></g></g></svg>