<svg xmlns="http://www.w3.org/2000/svg" xmlns:xlink="http://www.w3.org/1999/xlink" width="1024" zoomAndPan="magnify" viewBox="0 0 768 383.999986" height="512" preserveAspectRatio="xMidYMid meet" version="1.0"><defs><g/></defs><rect x="-76.8" width="921.6" fill="#ffffff" y="-38.399999" height="460.799983" fill-opacity="1"/><rect x="-76.8" width="921.6" fill="#ffffff" y="-38.399999" height="460.799983" fill-opacity="1"/><g fill="#013b23" fill-opacity="1"><g transform="translate(21.433283, 225.973386)"><g><path d="M 47.09375 1.65625 C 41.101562 1.65625 35.539062 0.585938 30.40625 -1.546875 C 25.28125 -3.691406 20.832031 -6.59375 17.0625 -10.25 C 13.289062 -13.90625 10.332031 -18.1875 8.1875 -23.09375 C 6.050781 -28.007812 4.984375 -33.238281 4.984375 -38.78125 C 4.984375 -44.320312 6.050781 -49.546875 8.1875 -54.453125 C 10.332031 -59.367188 13.289062 -63.65625 17.0625 -67.3125 C 20.832031 -70.96875 25.28125 -73.863281 30.40625 -76 C 35.539062 -78.144531 41.101562 -79.21875 47.09375 -79.21875 C 52.476562 -79.21875 57.21875 -78.40625 61.3125 -76.78125 C 65.414062 -75.15625 68.835938 -73.382812 71.578125 -71.46875 C 74.753906 -69.175781 77.488281 -66.585938 79.78125 -63.703125 L 68.6875 -52.625 C 67.0625 -54.695312 65.179688 -56.546875 63.046875 -58.171875 C 61.203125 -59.578125 58.945312 -60.847656 56.28125 -61.984375 C 53.625 -63.128906 50.5625 -63.703125 47.09375 -63.703125 C 43.613281 -63.703125 40.359375 -63.054688 37.328125 -61.765625 C 34.304688 -60.472656 31.664062 -58.703125 29.40625 -56.453125 C 27.15625 -54.203125 25.382812 -51.5625 24.09375 -48.53125 C 22.800781 -45.5 22.15625 -42.25 22.15625 -38.78125 C 22.15625 -35.3125 22.800781 -32.0625 24.09375 -29.03125 C 25.382812 -26 27.15625 -23.359375 29.40625 -21.109375 C 31.664062 -18.859375 34.304688 -17.082031 37.328125 -15.78125 C 40.359375 -14.488281 43.613281 -13.84375 47.09375 -13.84375 C 50.707031 -13.84375 53.878906 -14.414062 56.609375 -15.5625 C 59.347656 -16.707031 61.675781 -17.984375 63.59375 -19.390625 C 65.8125 -21.015625 67.695312 -22.859375 69.25 -24.921875 L 80.328125 -13.84375 C 78.035156 -10.96875 75.265625 -8.382812 72.015625 -6.09375 C 69.210938 -4.175781 65.742188 -2.40625 61.609375 -0.78125 C 57.472656 0.84375 52.632812 1.65625 47.09375 1.65625 Z M 47.09375 1.65625 "/></g></g></g><g fill="#013b23" fill-opacity="1"><g transform="translate(103.971088, 225.973386)"><g><path d="M 32.6875 1.109375 C 28.695312 1.109375 24.945312 0.367188 21.4375 -1.109375 C 17.925781 -2.585938 14.859375 -4.617188 12.234375 -7.203125 C 9.617188 -9.785156 7.570312 -12.773438 6.09375 -16.171875 C 4.613281 -19.566406 3.875 -23.222656 3.875 -27.140625 C 3.875 -30.984375 4.613281 -34.617188 6.09375 -38.046875 C 7.570312 -41.484375 9.617188 -44.492188 12.234375 -47.078125 C 14.859375 -49.671875 17.925781 -51.707031 21.4375 -53.1875 C 24.945312 -54.664062 28.695312 -55.40625 32.6875 -55.40625 C 36.675781 -55.40625 40.421875 -54.664062 43.921875 -53.1875 C 47.429688 -51.707031 50.5 -49.671875 53.125 -47.078125 C 55.75 -44.492188 57.800781 -41.484375 59.28125 -38.046875 C 60.757812 -34.617188 61.5 -30.984375 61.5 -27.140625 C 61.5 -23.222656 60.757812 -19.566406 59.28125 -16.171875 C 57.800781 -12.773438 55.75 -9.785156 53.125 -7.203125 C 50.5 -4.617188 47.429688 -2.585938 43.921875 -1.109375 C 40.421875 0.367188 36.675781 1.109375 32.6875 1.109375 Z M 32.6875 -12.734375 C 34.601562 -12.734375 36.410156 -13.101562 38.109375 -13.84375 C 39.804688 -14.582031 41.28125 -15.578125 42.53125 -16.828125 C 43.789062 -18.085938 44.769531 -19.601562 45.46875 -21.375 C 46.175781 -23.15625 46.53125 -25.078125 46.53125 -27.140625 C 46.53125 -29.210938 46.175781 -31.132812 45.46875 -32.90625 C 44.769531 -34.675781 43.789062 -36.1875 42.53125 -37.4375 C 41.28125 -38.695312 39.804688 -39.695312 38.109375 -40.4375 C 36.410156 -41.175781 34.601562 -41.546875 32.6875 -41.546875 C 30.757812 -41.546875 28.945312 -41.175781 27.25 -40.4375 C 25.550781 -39.695312 24.070312 -38.695312 22.8125 -37.4375 C 21.5625 -36.1875 20.582031 -34.675781 19.875 -32.90625 C 19.175781 -31.132812 18.828125 -29.210938 18.828125 -27.140625 C 18.828125 -25.078125 19.175781 -23.15625 19.875 -21.375 C 20.582031 -19.601562 21.5625 -18.085938 22.8125 -16.828125 C 24.070312 -15.578125 25.550781 -14.582031 27.25 -13.84375 C 28.945312 -13.101562 30.757812 -12.734375 32.6875 -12.734375 Z M 32.6875 -12.734375 "/></g></g></g><g fill="#013b23" fill-opacity="1"><g transform="translate(169.336588, 225.973386)"><g><path d="M 7.75 -77.5625 L 22.71875 -77.5625 L 22.71875 0 L 7.75 0 Z M 7.75 -77.5625 "/></g></g></g><g fill="#013b23" fill-opacity="1"><g transform="translate(199.803562, 225.973386)"><g><path d="M 7.75 -77.5625 L 22.71875 -77.5625 L 22.71875 0 L 7.75 0 Z M 7.75 -77.5625 "/></g></g></g><g fill="#013b23" fill-opacity="1"><g transform="translate(230.270547, 225.973386)"><g><path d="M 21.046875 1.109375 C 18.535156 1.109375 16.265625 0.722656 14.234375 -0.046875 C 12.203125 -0.828125 10.46875 -1.914062 9.03125 -3.3125 C 7.59375 -4.71875 6.46875 -6.363281 5.65625 -8.25 C 4.84375 -10.132812 4.4375 -12.1875 4.4375 -14.40625 C 4.4375 -18.832031 5.859375 -22.613281 8.703125 -25.75 C 11.546875 -28.894531 15.476562 -30.910156 20.5 -31.796875 L 37.671875 -34.90625 C 37.378906 -36.820312 36.4375 -38.5 34.84375 -39.9375 C 33.257812 -41.382812 31.0625 -42.109375 28.25 -42.109375 C 26.332031 -42.109375 24.613281 -41.789062 23.09375 -41.15625 C 21.582031 -40.53125 20.3125 -39.8125 19.28125 -39 C 18.019531 -38.113281 16.945312 -37.117188 16.0625 -36.015625 L 7.203125 -44.875 C 8.753906 -46.789062 10.640625 -48.523438 12.859375 -50.078125 C 14.773438 -51.410156 17.097656 -52.628906 19.828125 -53.734375 C 22.566406 -54.847656 25.742188 -55.40625 29.359375 -55.40625 C 32.828125 -55.40625 35.984375 -54.847656 38.828125 -53.734375 C 41.671875 -52.628906 44.125 -51.097656 46.1875 -49.140625 C 48.257812 -47.179688 49.847656 -44.890625 50.953125 -42.265625 C 52.066406 -39.640625 52.625 -36.816406 52.625 -33.796875 L 52.625 0 L 37.671875 0 L 37.671875 -6.640625 L 37.109375 -6.640625 C 35.929688 -5.171875 34.566406 -3.878906 33.015625 -2.765625 C 31.679688 -1.734375 30 -0.828125 27.96875 -0.046875 C 25.9375 0.722656 23.628906 1.109375 21.046875 1.109375 Z M 26.03125 -11.078125 C 29.351562 -11.078125 32.125 -12.203125 34.34375 -14.453125 C 36.5625 -16.710938 37.671875 -19.648438 37.671875 -23.265625 L 37.671875 -24.375 L 25.484375 -22.15625 C 23.566406 -21.789062 22.070312 -21.125 21 -20.15625 C 19.925781 -19.195312 19.390625 -18.019531 19.390625 -16.625 C 19.390625 -14.925781 19.941406 -13.578125 21.046875 -12.578125 C 22.160156 -11.578125 23.820312 -11.078125 26.03125 -11.078125 Z M 26.03125 -11.078125 "/></g></g></g><g fill="#013b23" fill-opacity="1"><g transform="translate(290.096592, 225.973386)"><g><path d="M 40.4375 1.109375 C 37.488281 1.109375 34.957031 0.648438 32.84375 -0.265625 C 30.738281 -1.191406 28.953125 -2.210938 27.484375 -3.328125 C 25.773438 -4.648438 24.367188 -6.125 23.265625 -7.75 L 22.71875 -7.75 L 22.71875 0 L 7.75 0 L 7.75 -77.5625 L 22.71875 -77.5625 L 22.71875 -46.53125 L 23.265625 -46.53125 C 24.367188 -48.15625 25.773438 -49.632812 27.484375 -50.96875 C 28.953125 -52.070312 30.738281 -53.085938 32.84375 -54.015625 C 34.957031 -54.941406 37.488281 -55.40625 40.4375 -55.40625 C 43.613281 -55.40625 46.675781 -54.703125 49.625 -53.296875 C 52.582031 -51.890625 55.1875 -49.945312 57.4375 -47.46875 C 59.695312 -45 61.488281 -42.023438 62.8125 -38.546875 C 64.144531 -35.078125 64.8125 -31.273438 64.8125 -27.140625 C 64.8125 -23.003906 64.144531 -19.203125 62.8125 -15.734375 C 61.488281 -12.265625 59.695312 -9.269531 57.4375 -6.75 C 55.1875 -4.238281 52.582031 -2.300781 49.625 -0.9375 C 46.675781 0.425781 43.613281 1.109375 40.4375 1.109375 Z M 36.015625 -12.734375 C 37.929688 -12.734375 39.738281 -13.101562 41.4375 -13.84375 C 43.132812 -14.582031 44.609375 -15.578125 45.859375 -16.828125 C 47.117188 -18.085938 48.097656 -19.601562 48.796875 -21.375 C 49.503906 -23.15625 49.859375 -25.078125 49.859375 -27.140625 C 49.859375 -29.210938 49.503906 -31.132812 48.796875 -32.90625 C 48.097656 -34.675781 47.117188 -36.1875 45.859375 -37.4375 C 44.609375 -38.695312 43.132812 -39.695312 41.4375 -40.4375 C 39.738281 -41.175781 37.929688 -41.546875 36.015625 -41.546875 C 34.085938 -41.546875 32.273438 -41.175781 30.578125 -40.4375 C 28.878906 -39.695312 27.398438 -38.695312 26.140625 -37.4375 C 24.890625 -36.1875 23.910156 -34.675781 23.203125 -32.90625 C 22.503906 -31.132812 22.15625 -29.210938 22.15625 -27.140625 C 22.15625 -25.078125 22.503906 -23.15625 23.203125 -21.375 C 23.910156 -19.601562 24.890625 -18.085938 26.140625 -16.828125 C 27.398438 -15.578125 28.878906 -14.582031 30.578125 -13.84375 C 32.273438 -13.101562 34.085938 -12.734375 36.015625 -12.734375 Z M 36.015625 -12.734375 "/></g></g></g><g fill="#013b23" fill-opacity="1"><g transform="translate(358.785765, 225.973386)"><g><path d="M 47.09375 1.65625 C 41.101562 1.65625 35.539062 0.585938 30.40625 -1.546875 C 25.28125 -3.691406 20.832031 -6.59375 17.0625 -10.25 C 13.289062 -13.90625 10.332031 -18.1875 8.1875 -23.09375 C 6.050781 -28.007812 4.984375 -33.238281 4.984375 -38.78125 C 4.984375 -44.320312 6.050781 -49.546875 8.1875 -54.453125 C 10.332031 -59.367188 13.289062 -63.65625 17.0625 -67.3125 C 20.832031 -70.96875 25.28125 -73.863281 30.40625 -76 C 35.539062 -78.144531 41.101562 -79.21875 47.09375 -79.21875 C 52.476562 -79.21875 57.21875 -78.40625 61.3125 -76.78125 C 65.414062 -75.15625 68.835938 -73.382812 71.578125 -71.46875 C 74.753906 -69.175781 77.488281 -66.585938 79.78125 -63.703125 L 68.6875 -52.625 C 67.0625 -54.695312 65.179688 -56.546875 63.046875 -58.171875 C 61.203125 -59.578125 58.945312 -60.847656 56.28125 -61.984375 C 53.625 -63.128906 50.5625 -63.703125 47.09375 -63.703125 C 43.613281 -63.703125 40.359375 -63.054688 37.328125 -61.765625 C 34.304688 -60.472656 31.664062 -58.703125 29.40625 -56.453125 C 27.15625 -54.203125 25.382812 -51.5625 24.09375 -48.53125 C 22.800781 -45.5 22.15625 -42.25 22.15625 -38.78125 C 22.15625 -35.3125 22.800781 -32.0625 24.09375 -29.03125 C 25.382812 -26 27.15625 -23.359375 29.40625 -21.109375 C 31.664062 -18.859375 34.304688 -17.082031 37.328125 -15.78125 C 40.359375 -14.488281 43.613281 -13.84375 47.09375 -13.84375 C 49.894531 -13.84375 52.347656 -14.140625 54.453125 -14.734375 C 56.554688 -15.328125 58.347656 -16.03125 59.828125 -16.84375 C 61.523438 -17.726562 63.003906 -18.757812 64.265625 -19.9375 L 64.265625 -29.359375 L 49.859375 -29.359375 L 49.859375 -42.65625 L 80.875 -42.65625 L 80.875 -13.296875 C 78.4375 -10.484375 75.554688 -7.972656 72.234375 -5.765625 C 69.429688 -3.835938 65.925781 -2.117188 61.71875 -0.609375 C 57.507812 0.898438 52.632812 1.65625 47.09375 1.65625 Z M 47.09375 1.65625 "/></g></g></g><g fill="#013b23" fill-opacity="1"><g transform="translate(446.863013, 225.973386)"><g><path d="M 21.046875 1.109375 C 18.535156 1.109375 16.265625 0.722656 14.234375 -0.046875 C 12.203125 -0.828125 10.46875 -1.914062 9.03125 -3.3125 C 7.59375 -4.71875 6.46875 -6.363281 5.65625 -8.25 C 4.84375 -10.132812 4.4375 -12.1875 4.4375 -14.40625 C 4.4375 -18.832031 5.859375 -22.613281 8.703125 -25.75 C 11.546875 -28.894531 15.476562 -30.910156 20.5 -31.796875 L 37.671875 -34.90625 C 37.378906 -36.820312 36.4375 -38.5 34.84375 -39.9375 C 33.257812 -41.382812 31.0625 -42.109375 28.25 -42.109375 C 26.332031 -42.109375 24.613281 -41.789062 23.09375 -41.15625 C 21.582031 -40.53125 20.3125 -39.8125 19.28125 -39 C 18.019531 -38.113281 16.945312 -37.117188 16.0625 -36.015625 L 7.203125 -44.875 C 8.753906 -46.789062 10.640625 -48.523438 12.859375 -50.078125 C 14.773438 -51.410156 17.097656 -52.628906 19.828125 -53.734375 C 22.566406 -54.847656 25.742188 -55.40625 29.359375 -55.40625 C 32.828125 -55.40625 35.984375 -54.847656 38.828125 -53.734375 C 41.671875 -52.628906 44.125 -51.097656 46.1875 -49.140625 C 48.257812 -47.179688 49.847656 -44.890625 50.953125 -42.265625 C 52.066406 -39.640625 52.625 -36.816406 52.625 -33.796875 L 52.625 0 L 37.671875 0 L 37.671875 -6.640625 L 37.109375 -6.640625 C 35.929688 -5.171875 34.566406 -3.878906 33.015625 -2.765625 C 31.679688 -1.734375 30 -0.828125 27.96875 -0.046875 C 25.9375 0.722656 23.628906 1.109375 21.046875 1.109375 Z M 26.03125 -11.078125 C 29.351562 -11.078125 32.125 -12.203125 34.34375 -14.453125 C 36.5625 -16.710938 37.671875 -19.648438 37.671875 -23.265625 L 37.671875 -24.375 L 25.484375 -22.15625 C 23.566406 -21.789062 22.070312 -21.125 21 -20.15625 C 19.925781 -19.195312 19.390625 -18.019531 19.390625 -16.625 C 19.390625 -14.925781 19.941406 -13.578125 21.046875 -12.578125 C 22.160156 -11.578125 23.820312 -11.078125 26.03125 -11.078125 Z M 26.03125 -11.078125 "/></g></g></g><g fill="#013b23" fill-opacity="1"><g transform="translate(506.689057, 225.973386)"><g><path d="M 7.203125 -54.296875 L 22.15625 -54.296875 L 22.15625 -46.53125 L 22.71875 -46.53125 C 23.894531 -48.15625 25.257812 -49.632812 26.8125 -50.96875 C 28.144531 -52.070312 29.804688 -53.085938 31.796875 -54.015625 C 33.796875 -54.941406 36.125 -55.40625 38.78125 -55.40625 L 39.890625 -55.40625 L 39.890625 -39.328125 C 39.515625 -39.398438 39.109375 -39.472656 38.671875 -39.546875 C 38.222656 -39.628906 37.6875 -39.707031 37.0625 -39.78125 C 36.4375 -39.851562 35.71875 -39.890625 34.90625 -39.890625 C 31.28125 -39.890625 28.25 -38.59375 25.8125 -36 C 23.375 -33.414062 22.15625 -29.910156 22.15625 -25.484375 L 22.15625 0 L 7.203125 0 Z M 7.203125 -54.296875 "/></g></g></g><g fill="#013b23" fill-opacity="1"><g transform="translate(548.788892, 225.973386)"><g><path d="M 28.25 1.109375 C 25.070312 1.109375 22.003906 0.425781 19.046875 -0.9375 C 16.097656 -2.300781 13.492188 -4.238281 11.234375 -6.75 C 8.984375 -9.269531 7.191406 -12.265625 5.859375 -15.734375 C 4.535156 -19.203125 3.875 -23.003906 3.875 -27.140625 C 3.875 -31.273438 4.535156 -35.078125 5.859375 -38.546875 C 7.191406 -42.023438 8.984375 -45 11.234375 -47.46875 C 13.492188 -49.945312 16.097656 -51.890625 19.046875 -53.296875 C 22.003906 -54.703125 25.070312 -55.40625 28.25 -55.40625 C 31.132812 -55.40625 33.644531 -54.941406 35.78125 -54.015625 C 37.925781 -53.085938 39.738281 -52.070312 41.21875 -50.96875 C 42.914062 -49.632812 44.316406 -48.15625 45.421875 -46.53125 L 45.984375 -46.53125 L 45.984375 -77.5625 L 60.9375 -77.5625 L 60.9375 0 L 45.984375 0 L 45.984375 -7.75 L 45.421875 -7.75 C 44.316406 -6.125 42.914062 -4.648438 41.21875 -3.328125 C 39.738281 -2.210938 37.925781 -1.191406 35.78125 -0.265625 C 33.644531 0.648438 31.132812 1.109375 28.25 1.109375 Z M 32.6875 -12.734375 C 34.601562 -12.734375 36.410156 -13.101562 38.109375 -13.84375 C 39.804688 -14.582031 41.28125 -15.578125 42.53125 -16.828125 C 43.789062 -18.085938 44.769531 -19.601562 45.46875 -21.375 C 46.175781 -23.15625 46.53125 -25.078125 46.53125 -27.140625 C 46.53125 -29.210938 46.175781 -31.132812 45.46875 -32.90625 C 44.769531 -34.675781 43.789062 -36.1875 42.53125 -37.4375 C 41.28125 -38.695312 39.804688 -39.695312 38.109375 -40.4375 C 36.410156 -41.175781 34.601562 -41.546875 32.6875 -41.546875 C 30.757812 -41.546875 28.945312 -41.175781 27.25 -40.4375 C 25.550781 -39.695312 24.070312 -38.695312 22.8125 -37.4375 C 21.5625 -36.1875 20.582031 -34.675781 19.875 -32.90625 C 19.175781 -31.132812 18.828125 -29.210938 18.828125 -27.140625 C 18.828125 -25.078125 19.175781 -23.15625 19.875 -21.375 C 20.582031 -19.601562 21.5625 -18.085938 22.8125 -16.828125 C 24.070312 -15.578125 25.550781 -14.582031 27.25 -13.84375 C 28.945312 -13.101562 30.757812 -12.734375 32.6875 -12.734375 Z M 32.6875 -12.734375 "/></g></g></g><g fill="#013b23" fill-opacity="1"><g transform="translate(617.478065, 225.973386)"><g><path d="M 32.6875 1.109375 C 28.695312 1.109375 24.945312 0.367188 21.4375 -1.109375 C 17.925781 -2.585938 14.859375 -4.617188 12.234375 -7.203125 C 9.617188 -9.785156 7.570312 -12.773438 6.09375 -16.171875 C 4.613281 -19.566406 3.875 -23.222656 3.875 -27.140625 C 3.875 -30.984375 4.613281 -34.617188 6.09375 -38.046875 C 7.570312 -41.484375 9.601562 -44.492188 12.1875 -47.078125 C 14.769531 -49.671875 17.757812 -51.707031 21.15625 -53.1875 C 24.5625 -54.664062 28.21875 -55.40625 32.125 -55.40625 C 35.894531 -55.40625 39.421875 -54.679688 42.703125 -53.234375 C 45.992188 -51.796875 48.859375 -49.859375 51.296875 -47.421875 C 53.734375 -44.984375 55.671875 -42.117188 57.109375 -38.828125 C 58.554688 -35.546875 59.28125 -32.019531 59.28125 -28.25 C 59.28125 -27.21875 59.242188 -26.3125 59.171875 -25.53125 C 59.097656 -24.757812 59.019531 -24.078125 58.9375 -23.484375 C 58.863281 -22.742188 58.789062 -22.117188 58.71875 -21.609375 L 19.390625 -21.609375 C 20.203125 -19.097656 21.769531 -16.898438 24.09375 -15.015625 C 26.425781 -13.128906 29.660156 -12.1875 33.796875 -12.1875 C 36.160156 -12.1875 38.226562 -12.476562 40 -13.0625 C 41.769531 -13.65625 43.285156 -14.359375 44.546875 -15.171875 C 45.941406 -16.066406 47.160156 -17.101562 48.203125 -18.28125 L 55.953125 -7.75 C 54.328125 -6.125 52.332031 -4.648438 49.96875 -3.328125 C 47.976562 -2.210938 45.539062 -1.191406 42.65625 -0.265625 C 39.769531 0.648438 36.445312 1.109375 32.6875 1.109375 Z M 43.765625 -32.6875 C 42.953125 -35.195312 41.492188 -37.394531 39.390625 -39.28125 C 37.285156 -41.164062 34.679688 -42.109375 31.578125 -42.109375 C 28.472656 -42.109375 25.867188 -41.164062 23.765625 -39.28125 C 21.660156 -37.394531 20.203125 -35.195312 19.390625 -32.6875 Z M 43.765625 -32.6875 "/></g></g></g><g fill="#013b23" fill-opacity="1"><g transform="translate(680.627795, 225.973386)"><g><path d="M 7.203125 -54.296875 L 22.15625 -54.296875 L 22.15625 -46.53125 L 22.71875 -46.53125 C 23.894531 -48.15625 25.257812 -49.632812 26.8125 -50.96875 C 28.144531 -52.070312 29.804688 -53.085938 31.796875 -54.015625 C 33.796875 -54.941406 36.125 -55.40625 38.78125 -55.40625 C 41.507812 -55.40625 44.09375 -54.867188 46.53125 -53.796875 C 48.96875 -52.722656 51.09375 -51.207031 52.90625 -49.25 C 54.71875 -47.289062 56.140625 -44.90625 57.171875 -42.09375 C 58.203125 -39.289062 58.71875 -36.15625 58.71875 -32.6875 L 58.71875 0 L 43.765625 0 L 43.765625 -30.46875 C 43.765625 -33.789062 42.878906 -36.375 41.109375 -38.21875 C 39.335938 -40.070312 36.898438 -41 33.796875 -41 C 30.472656 -41 27.703125 -39.867188 25.484375 -37.609375 C 23.265625 -35.359375 22.15625 -32.425781 22.15625 -28.8125 L 22.15625 0 L 7.203125 0 Z M 7.203125 -54.296875 "/></g></g></g></svg>